<svg width="18" height="19" viewBox="0 0 18 19" fill="none" xmlns="http://www.w3.org/2000/svg">
<path d="M7.72756 9.5L0.263903 2.03814C0.180236 1.95448 0.113867 1.85515 0.0685864 1.74583C0.0233057 1.63651 8.81582e-10 1.51935 0 1.40102C-8.81583e-10 1.2827 0.0233057 1.16553 0.0685864 1.05622C0.113867 0.946899 0.180236 0.847571 0.263903 0.763903C0.347571 0.680236 0.446899 0.613867 0.556216 0.568586C0.665534 0.523306 0.782699 0.5 0.901023 0.5C1.01935 0.5 1.13651 0.523306 1.24583 0.568586C1.35515 0.613867 1.45448 0.680236 1.53814 0.763903L9 8.22756L16.4619 0.763903C16.6308 0.594929 16.86 0.5 17.099 0.5C17.3379 0.5 17.5671 0.594929 17.7361 0.763903C17.9051 0.932878 18 1.16206 18 1.40102C18 1.63999 17.9051 1.86917 17.7361 2.03814L10.2724 9.5L17.7361 16.9619C17.9051 17.1308 18 17.36 18 17.599C18 17.8379 17.9051 18.0671 17.7361 18.2361C17.5671 18.4051 17.3379 18.5 17.099 18.5C16.86 18.5 16.6308 18.4051 16.4619 18.2361L9 10.7724L1.53814 18.2361C1.36917 18.4051 1.13999 18.5 0.901023 18.5C0.662057 18.5 0.432878 18.4051 0.263903 18.2361C0.0949287 18.0671 0 17.8379 0 17.599C0 17.36 0.0949287 17.1308 0.263903 16.9619L7.72756 9.5Z" fill="black"/>
</svg>
