<svg width="44" height="44" viewBox="0 0 44 44" fill="none" xmlns="http://www.w3.org/2000/svg">
<path d="M42 13.1111V30.8889C42 33.8357 40.8294 36.6619 38.7456 38.7456C36.6619 40.8294 33.8357 42 30.8889 42H13.1111C10.1643 42 7.33811 40.8294 5.25437 38.7456C3.17063 36.6619 2 33.8357 2 30.8889V13.1111C2 10.1643 3.17063 7.33811 5.25437 5.25437C7.33811 3.17063 10.1643 2 13.1111 2H30.8889C33.8357 2 36.6619 3.17063 38.7456 5.25437C40.8294 7.33811 42 10.1643 42 13.1111Z" stroke="black" stroke-width="2.4" stroke-linecap="round" stroke-linejoin="round"/>
<path d="M19.7779 41.9997V21.9997C19.7779 17.1397 20.8891 13.1108 28.6668 13.1108M15.3335 24.222H28.6668" stroke="black" stroke-width="2.4" stroke-linecap="round" stroke-linejoin="round"/>
</svg>
