<svg width="44" height="44" viewBox="0 0 44 44" fill="none" xmlns="http://www.w3.org/2000/svg">
<path d="M22.0002 30.8891C24.3577 30.8891 26.6186 29.9526 28.2856 28.2856C29.9526 26.6186 30.8891 24.3577 30.8891 22.0002C30.8891 19.6427 29.9526 17.3818 28.2856 15.7148C26.6186 14.0478 24.3577 13.1113 22.0002 13.1113C19.6427 13.1113 17.3818 14.0478 15.7148 15.7148C14.0478 17.3818 13.1113 19.6427 13.1113 22.0002C13.1113 24.3577 14.0478 26.6186 15.7148 28.2856C17.3818 29.9526 19.6427 30.8891 22.0002 30.8891Z" stroke="black" stroke-width="2.5" stroke-linecap="round" stroke-linejoin="round"/>
<path d="M2 30.8889V13.1111C2 10.1643 3.17063 7.33811 5.25437 5.25437C7.33811 3.17063 10.1643 2 13.1111 2H30.8889C33.8357 2 36.6619 3.17063 38.7456 5.25437C40.8294 7.33811 42 10.1643 42 13.1111V30.8889C42 33.8357 40.8294 36.6619 38.7456 38.7456C36.6619 40.8294 33.8357 42 30.8889 42H13.1111C10.1643 42 7.33811 40.8294 5.25437 38.7456C3.17063 36.6619 2 33.8357 2 30.8889Z" stroke="black" stroke-width="2.5"/>
<path d="M34.2222 9.79984L34.2444 9.77539" stroke="black" stroke-width="2.5" stroke-linecap="round" stroke-linejoin="round"/>
</svg>
