<svg width="27" height="27" viewBox="0 0 27 27" fill="none" xmlns="http://www.w3.org/2000/svg">
<path d="M4.236 17.5387L4.23571 17.5384C2.567 15.3775 1.38372 12.8293 1.38372 9.52544C1.38372 6.27215 2.98345 3.47932 5.26046 2.28422L4.236 17.5387ZM4.236 17.5387C5.60436 19.3072 7.25527 20.7681 8.8248 22.1569M4.236 17.5387L9.15614 21.7824M9.93215 23.1457C10.5881 23.7402 11.2033 24.2887 11.8071 24.6944L11.8074 24.6946L9.15614 21.7824M9.93215 23.1457C9.93203 23.1456 9.9319 23.1455 9.93177 23.1454L10.2675 22.7749L9.93225 23.1458C9.93222 23.1458 9.93219 23.1458 9.93215 23.1457ZM9.93215 23.1457C9.56879 22.8173 9.19877 22.4884 8.8248 22.1569M8.8248 22.1569L9.15614 21.7824M8.8248 22.1569C8.82468 22.1568 8.82457 22.1567 8.82445 22.1566L9.15614 21.7824M17.0692 23.1445L17.0682 23.1454C16.4123 23.7398 15.7971 24.2884 15.1933 24.6942C15.1932 24.6942 15.1931 24.6943 15.1929 24.6944L14.914 24.2794L17.0692 23.1445ZM17.0692 23.1445C17.4194 22.8255 17.7782 22.5088 18.1419 22.1877L18.1747 22.1587L18.1756 22.158M17.0692 23.1445L18.1756 22.158M18.1756 22.158L18.2122 22.1256C19.7702 20.7441 21.4063 19.2934 22.764 17.5387L22.7642 17.5385M18.1756 22.158L22.7642 17.5385M22.7642 17.5385C24.4344 15.3774 25.6163 12.8292 25.6163 9.52544M22.7642 17.5385L25.6163 9.52544M25.6163 9.52544C25.6163 6.27359 24.0165 3.47924 21.7394 2.28416M25.6163 9.52544L21.7394 2.28416M21.7394 2.28416C20.6256 1.69924 19.3127 1.48256 17.9281 1.83875C16.5477 2.19383 15.1372 3.10706 13.7951 4.70918C13.7498 4.76323 13.6993 4.80162 13.6491 4.82614C13.5992 4.85051 13.5487 4.86166 13.5 4.86166C13.4513 4.86166 13.4008 4.85051 13.3509 4.82615C13.3007 4.80162 13.2502 4.76323 13.2049 4.70918C11.8628 3.10706 10.4523 2.19383 9.07192 1.83875C7.68725 1.48256 6.37441 1.69924 5.26057 2.28416H21.7394ZM13.1415 3.12738L13.4999 3.49596L13.8584 3.12747C16.6324 0.275969 19.6483 -0.062673 22.0582 1.20338L22.2907 0.760747L22.0582 1.20339C24.6462 2.56293 26.5 5.76515 26.5 9.52688C26.5 13.2364 25.1591 16.0658 23.3808 18.365C21.9499 20.2145 20.1924 21.7714 18.6052 23.175C18.2562 23.4823 17.9091 23.7922 17.5637 24.1048C16.9146 24.692 16.2518 25.2869 15.5863 25.7336C14.9194 26.1806 14.2208 26.5 13.5 26.5C12.7792 26.5 12.0807 26.1806 11.4138 25.7336C10.7495 25.287 10.0854 24.692 9.43703 24.1055C9.10406 23.803 8.75404 23.4924 8.39465 23.1748C6.80631 21.7714 5.05006 20.2159 3.61924 18.3651L3.61918 18.365C1.84087 16.0658 0.5 13.2364 0.5 9.52688C0.5 5.7655 2.35484 2.56295 4.94204 1.20039C7.35193 -0.0641327 10.3677 0.274665 13.1415 3.12738Z" fill="black" stroke="black"/>
</svg>
