<svg width="44" height="44" viewBox="0 0 44 44" fill="none" xmlns="http://www.w3.org/2000/svg">
<path d="M42 13.1111V30.8889C42 33.8357 40.8294 36.6619 38.7456 38.7456C36.6619 40.8294 33.8357 42 30.8889 42H13.1111C10.1643 42 7.33811 40.8294 5.25437 38.7456C3.17063 36.6619 2 33.8357 2 30.8889V13.1111C2 10.1643 3.17063 7.33811 5.25437 5.25437C7.33811 3.17063 10.1643 2 13.1111 2H30.8889C33.8357 2 36.6619 3.17063 38.7456 5.25437C40.8294 7.33811 42 10.1643 42 13.1111Z" stroke="black" stroke-width="2.5" stroke-linecap="round" stroke-linejoin="round"/>
<path d="M17.5553 21.9998C16.2368 21.9998 14.9479 22.3908 13.8515 23.1234C12.7552 23.8559 11.9007 24.8971 11.3961 26.1153C10.8916 27.3335 10.7595 28.6739 11.0168 29.9671C11.274 31.2603 11.9089 32.4482 12.8413 33.3805C13.7736 34.3129 14.9615 34.9478 16.2547 35.2051C17.5479 35.4623 18.8884 35.3303 20.1066 34.8257C21.3247 34.3211 22.3659 33.4666 23.0985 32.3703C23.831 31.274 24.222 29.985 24.222 28.6665V8.6665C24.962 10.8887 27.7776 15.3332 33.1109 15.3332" stroke="black" stroke-width="2.5" stroke-linecap="round" stroke-linejoin="round"/>
</svg>
