<svg width="38" height="37" viewBox="0 0 38 37" fill="none" xmlns="http://www.w3.org/2000/svg">
<path fill-rule="evenodd" clip-rule="evenodd" d="M25.4255 19.4877C25.6312 18.5011 25.5838 17.48 25.2876 16.5157C24.9914 15.5514 24.4556 14.674 23.7281 13.962C23.0006 13.25 22.1041 12.7256 21.1188 12.4357C20.1335 12.1458 19.0902 12.0994 18.0821 12.3007L19.5184 13.7065C20.6888 13.7536 21.7984 14.2297 22.6268 15.0403C23.4553 15.8508 23.9421 16.9365 23.9907 18.082L25.4255 19.4877ZM15.2686 16.0077C14.7607 16.8779 14.5592 17.8874 14.6951 18.8808C14.8311 19.8741 15.2971 20.7961 16.0211 21.5048C16.7452 22.2134 17.6873 22.6694 18.7023 22.8025C19.7172 22.9356 20.7487 22.7384 21.6379 22.2413L22.7676 23.347C21.5705 24.125 20.1352 24.4737 18.7053 24.3339C17.2753 24.194 15.9389 23.5743 14.9227 22.5798C13.9066 21.5853 13.2734 20.2773 13.1305 18.8778C12.9876 17.4784 13.3439 16.0736 14.1388 14.902L15.2686 16.0077Z" fill="#0B0A0A"/>
<path fill-rule="evenodd" clip-rule="evenodd" d="M25.79 26.3047L24.6462 25.1868C22.9905 26.0687 21.1916 26.6474 19.3258 26.6474C16.7239 26.6474 14.2497 25.5204 12.1162 24.0187C9.98896 22.5201 8.26632 20.6955 7.18324 19.4101C6.525 18.6258 6.45653 18.4903 6.45653 18.271C6.45653 18.0532 6.525 17.9161 7.1848 17.1318C8.22741 15.8951 9.86136 14.1574 11.8812 12.6922L10.767 11.6048C8.69737 13.1385 7.03852 14.9097 5.98346 16.1631L5.89165 16.2728C5.37812 16.8805 4.90039 17.4455 4.90039 18.271C4.90039 19.0964 5.37812 19.6614 5.89165 20.2691L5.98346 20.3788C7.11166 21.719 8.93079 23.6517 11.2074 25.2539C13.4794 26.853 16.2695 28.1704 19.3258 28.1704C21.6756 28.1704 23.8697 27.3921 25.79 26.3047ZM14.953 9.23963C16.3224 8.70658 17.7914 8.37305 19.3258 8.37305C22.382 8.37305 25.1737 9.69043 27.4441 11.2896C29.7208 12.8918 31.5399 14.8244 32.6681 16.1647L32.7599 16.2743C33.2734 16.882 33.7512 17.447 33.7512 18.2725C33.7512 19.0979 33.2734 19.663 32.7599 20.2706L32.6681 20.3803C31.7188 21.5105 30.6876 22.5722 29.5823 23.5572L28.4805 22.479C29.552 21.5296 30.5506 20.5044 31.4683 19.4117C32.1281 18.6273 32.195 18.4918 32.195 18.2725C32.195 18.0547 32.1281 17.9176 31.4668 17.1333C30.3853 15.8479 28.6626 14.0233 26.5338 12.5247C24.4035 11.0215 21.9292 9.89451 19.3258 9.89451C18.2458 9.89451 17.1861 10.0895 16.1653 10.4245L14.953 9.23963Z" fill="#0B0A0A"/>
<path d="M8.43262 3.04102L33.3308 27.4088" stroke="#0B0A0A" stroke-width="0.912587"/>
</svg>
