<svg width="29" height="29" viewBox="0 0 29 29" fill="none" xmlns="http://www.w3.org/2000/svg">
<path d="M2.06501 4.6H24.8862C26.9532 4.6 28.4457 6.505 27.8787 8.422L25.3977 16.822C25.0152 18.112 23.7942 19 22.4052 19H8.66807C7.27755 19 6.05504 18.1105 5.67404 16.822L2.06501 4.6ZM2.06501 4.6L1 1M21.2502 28C21.8469 28 22.4192 27.7629 22.8412 27.341C23.2631 26.919 23.5002 26.3467 23.5002 25.75C23.5002 25.1533 23.2631 24.581 22.8412 24.159C22.4192 23.7371 21.8469 23.5 21.2502 23.5C20.6534 23.5 20.0811 23.7371 19.6592 24.159C19.2372 24.581 19.0002 25.1533 19.0002 25.75C19.0002 26.3467 19.2372 26.919 19.6592 27.341C20.0811 27.7629 20.6534 28 21.2502 28ZM9.25007 28C9.84681 28 10.4191 27.7629 10.8411 27.341C11.263 26.919 11.5001 26.3467 11.5001 25.75C11.5001 25.1533 11.263 24.581 10.8411 24.159C10.4191 23.7371 9.84681 23.5 9.25007 23.5C8.65333 23.5 8.08103 23.7371 7.65907 24.159C7.23711 24.581 7.00005 25.1533 7.00005 25.75C7.00005 26.3467 7.23711 26.919 7.65907 27.341C8.08103 27.7629 8.65333 28 9.25007 28Z" stroke="black" stroke-width="1.5" stroke-linecap="round" stroke-linejoin="round"/>
</svg>
