<svg width="29" height="29" viewBox="0 0 29 29" fill="none" xmlns="http://www.w3.org/2000/svg">
<path d="M1 14.5C1 21.9561 7.04395 28 14.5 28C21.9561 28 28 21.9561 28 14.5C28 7.04395 21.9561 1 14.5 1C7.04395 1 1 7.04395 1 14.5Z" stroke="black" stroke-width="1.5" stroke-linecap="round" stroke-linejoin="round"/>
<path d="M15.8501 1.06763C15.8501 1.06763 19.9001 6.40013 19.9001 14.5001C19.9001 22.6001 15.8501 27.9326 15.8501 27.9326M13.1501 27.9326C13.1501 27.9326 9.10009 22.6001 9.10009 14.5001C9.10009 6.40013 13.1501 1.06763 13.1501 1.06763M1.85059 19.2251H27.1496M1.85059 9.77513H27.1496" stroke="black" stroke-width="1.5" stroke-linecap="round" stroke-linejoin="round"/>
</svg>
