<svg width="20" height="13" viewBox="0 0 20 13" fill="none" xmlns="http://www.w3.org/2000/svg">
<path d="M0.75 0.781006C0.551088 0.781006 0.360322 0.860023 0.21967 1.00068C0.0790175 1.14133 0 1.33209 0 1.53101C0 1.72992 0.0790175 1.92068 0.21967 2.06134C0.360322 2.20199 0.551088 2.28101 0.75 2.28101H19.25C19.4489 2.28101 19.6397 2.20199 19.7803 2.06134C19.921 1.92068 20 1.72992 20 1.53101C20 1.33209 19.921 1.14133 19.7803 1.00068C19.6397 0.860023 19.4489 0.781006 19.25 0.781006H0.75ZM4 6.53101C4 6.33209 4.07902 6.14133 4.21967 6.00068C4.36032 5.86002 4.55109 5.78101 4.75 5.78101H15.25C15.4489 5.78101 15.6397 5.86002 15.7803 6.00068C15.921 6.14133 16 6.33209 16 6.53101C16 6.72992 15.921 6.92068 15.7803 7.06134C15.6397 7.20199 15.4489 7.28101 15.25 7.28101H4.75C4.55109 7.28101 4.36032 7.20199 4.21967 7.06134C4.07902 6.92068 4 6.72992 4 6.53101ZM8 11.469C8 11.2701 8.07902 11.0793 8.21967 10.9387C8.36032 10.798 8.55109 10.719 8.75 10.719H11.25C11.4489 10.719 11.6397 10.798 11.7803 10.9387C11.921 11.0793 12 11.2701 12 11.469C12 11.6679 11.921 11.8587 11.7803 11.9993C11.6397 12.14 11.4489 12.219 11.25 12.219H8.75C8.55109 12.219 8.36032 12.14 8.21967 11.9993C8.07902 11.8587 8 11.6679 8 11.469Z" fill="black"/>
</svg>
