<svg width="29" height="19" viewBox="0 0 29 19" fill="none" xmlns="http://www.w3.org/2000/svg">
<path d="M28.9578 9.2975C28.9153 9.2025 27.8928 6.93625 25.604 4.6475C23.4839 2.5275 19.8376 0 14.5 0C9.16239 0 5.51606 2.5275 3.39602 4.6475C1.10722 6.93625 0.0846982 9.2025 0.0421973 9.2975C0.0143629 9.3616 0 9.43074 0 9.50063C0 9.57051 0.0143629 9.63965 0.0421973 9.70375C0.0846982 9.8 1.10722 12.065 3.39602 14.3538C5.52106 16.4788 9.16364 19 14.5 19C19.8364 19 23.4839 16.4738 25.604 14.3538C27.8928 12.065 28.9153 9.8 28.9578 9.70375C28.9856 9.63965 29 9.57051 29 9.50063C29 9.43074 28.9856 9.3616 28.9578 9.2975ZM24.8702 13.6725C21.9864 16.5475 18.4951 18 14.495 18C10.4949 18 7.00859 16.5438 4.11978 13.6725C2.8906 12.4467 1.85688 11.0395 1.05472 9.5C1.85841 7.96019 2.89383 6.55295 4.12478 5.3275C7.01359 2.45625 10.4999 1 14.5 1C18.5001 1 21.9864 2.45625 24.8752 5.3275C26.106 6.55308 27.1414 7.96029 27.9453 9.5C27.1416 11.0398 26.1062 12.4471 24.8752 13.6725H24.8702ZM14.5 4C13.4122 4 12.3488 4.32257 11.4443 4.92692C10.5398 5.53126 9.83485 6.39025 9.41856 7.39524C9.00227 8.40023 8.89335 9.5061 9.10557 10.573C9.31779 11.6399 9.84163 12.6199 10.6108 13.3891C11.38 14.1583 12.3601 14.6821 13.427 14.8943C14.4939 15.1065 15.5998 14.9976 16.6048 14.5813C17.6098 14.1651 18.4688 13.4601 19.0732 12.5556C19.6775 11.6512 20.0001 10.5878 20.0001 9.5C19.9985 8.04182 19.4185 6.64383 18.3873 5.61274C17.3562 4.58165 15.9582 4.00165 14.5 4ZM14.5 14C13.61 14 12.7399 13.7361 11.9999 13.2416C11.2598 12.7471 10.6831 12.0443 10.3425 11.2221C10.0019 10.3998 9.91274 9.49501 10.0864 8.62209C10.26 7.74918 10.6886 6.94736 11.318 6.31802C11.9473 5.68868 12.7491 5.2601 13.6221 5.08647C14.495 4.91283 15.3998 5.00195 16.2221 5.34254C17.0444 5.68314 17.7472 6.25991 18.2417 6.99993C18.7362 7.73996 19.0001 8.60998 19.0001 9.5C19.0001 10.6935 18.526 11.8381 17.682 12.682C16.8381 13.5259 15.6935 14 14.5 14Z" fill="#262626"/>
</svg>
